<svg xmlns="http://www.w3.org/2000/svg" width="1200" height="180" viewBox="0 0 1200 180" fill="none">
<defs><pattern id="grid" width="60" height="60" patternUnits="userSpaceOnUse"><path d="M60 0 H0 V60" fill="none" stroke="rgba(255,255,255,0.04)" stroke-width="1"></path></pattern>
<radialGradient id="t" cx="14%" cy="0%" r="72%"><stop offset="0%" stop-color="#14B8A6" stop-opacity="0.13"></stop><stop offset="100%" stop-color="#14B8A6" stop-opacity="0"></stop></radialGradient></defs>
<rect width="1200" height="180" fill="#0f0f0f"></rect><rect width="1200" height="180" fill="url(#grid)"></rect><rect width="1200" height="180" fill="url(#t)"></rect>
<g stroke="rgba(255,255,255,.14)" stroke-width="1"><path d="M720 120 L800 62 L900 96 L1000 48 L1090 88 L1160 44"></path><path d="M800 62 L900 96 L1000 48"></path><path d="M720 120 L900 96 L1090 88"></path></g>
<g stroke="#14B8A6" stroke-width="2" fill="none" opacity=".6"><path d="M700 148 L800 110 L900 126 L1000 84 L1100 102 L1180 62"></path></g>
<g fill="#ffffff" opacity=".75"><circle cx="800" cy="62" r="3"></circle><circle cx="1000" cy="48" r="3"></circle><circle cx="1160" cy="44" r="3"></circle></g>
<g fill="#14B8A6"><circle cx="900" cy="126" r="3.4"></circle><circle cx="1100" cy="102" r="3.4"></circle></g>
</svg>